<svg version="1.1" id="Layer_1" xmlns="http://www.w3.org/2000/svg" xmlns:xlink="http://www.w3.org/1999/xlink" x="0px" y="0px" viewBox="0 0 512 512" style="enable-background:new 0 0 512 512;" xml:space="preserve">
    <g id="Layer_2_1_">
        <g id="Layer_1-2">
            <path fill="#000" d="M149.6,269.9v28.7h48.8v-19.2c0.3-1.4,0.5-141.5,0.5-141.5c0-8.2,1.1-16.3,3.3-22.3c8.2-26.7,32.6-49,64.2-49
                c45.1,0,60.9,35.3,60.9,77.8c0,0-0.5,123.9-0.5,125.4v28.7h46.9v-19.2c0.3-1.4,0.5-140.3,0.5-140.3c0-90.3-56.6-112-93-112
                c-43.5,0-74,24.5-87,49.5h-1.1l-1.5-23.6C191,41.2,181,32.2,169.3,32.7S148.6,43.3,149.2,55c0.6,15.1,0.9,31,0.9,49.2
                C150.1,104.2,149.6,268.3,149.6,269.9z"/>
            <path fill="#000" d="M326.8,370.7c0,3.1-0.1,6.1-0.3,9.2c-2.2,38.2-18.7,68.6-60.6,68.6c-31.6,0-56-22.4-64.2-49
                c-2.2-6-3.3-14.1-3.3-22.3V310h-48.8v81.9c0,18.9,4.8,37.7,15.4,53.3c28.9,42.7,80,43,115.8,43c36.4,0,93-21.8,93-112v-66.1h-47
                V370.7z"/>
            <path fill="#000" d="M264.5,324.2c9.7,0,18.1-6.8,20.1-16.3v-9.2c0-11.4-9.3-20.5-20.6-20.5c0,0,0,0,0,0h-5.2
                c-9.7,0-18.1,6.8-20.2,16.3v9.1c0,11.4,9.2,20.6,20.6,20.6L264.5,324.2z"/>
            <polygon fill="#000" points="109,0 30,0 0,0 0,30 0,109 30,109 30,30 109,30 		"/>
            <polygon fill="#000" points="403,512 482,512 512,512 512,482 512,403 482,403 482,482 403,482 		"/>
        </g>
    </g>
</svg>